<svg width="20" height="20" viewBox="0 0 20 20" fill="none" xmlns="http://www.w3.org/2000/svg">
<path d="M5.55447 5.83307C5.55447 4.94896 5.90569 4.10105 6.53085 3.47589C7.15601 2.85073 8.00392 2.49951 8.88803 2.49951C9.77215 2.49951 10.6201 2.85073 11.2452 3.47589C11.8704 4.10105 12.2216 4.94896 12.2216 5.83307C12.2216 5.98042 12.1631 6.12174 12.0589 6.22594C11.9547 6.33013 11.8134 6.38867 11.666 6.38867C11.5186 6.38867 11.3773 6.33013 11.2731 6.22594C11.1689 6.12174 11.1104 5.98042 11.1104 5.83307C11.1104 5.24366 10.8763 4.67839 10.4595 4.26162C10.0427 3.84484 9.47744 3.6107 8.88803 3.6107C8.29862 3.6107 7.73335 3.84484 7.31658 4.26162C6.8998 4.67839 6.66566 5.24366 6.66566 5.83307C6.66566 5.98042 6.60712 6.12174 6.50293 6.22594C6.39874 6.33013 6.25742 6.38867 6.11007 6.38867C5.96271 6.38867 5.8214 6.33013 5.7172 6.22594C5.61301 6.12174 5.55447 5.98042 5.55447 5.83307ZM15.5017 9.72223C14.9037 9.75001 14.444 10.2653 14.444 10.8633V11.3689C14.4459 11.5122 14.3935 11.651 14.2972 11.7573C14.201 11.8636 14.0681 11.9295 13.9252 11.9418C13.8492 11.9469 13.773 11.9362 13.7012 11.9106C13.6295 11.8849 13.5639 11.8448 13.5083 11.7927C13.4527 11.7406 13.4085 11.6776 13.3783 11.6077C13.3481 11.5378 13.3326 11.4624 13.3328 11.3862V9.75348C13.3328 9.15552 12.873 8.64229 12.2751 8.61243C12.1248 8.60519 11.9747 8.62853 11.8337 8.68103C11.6928 8.73354 11.5639 8.81412 11.455 8.91788C11.3461 9.02165 11.2595 9.14644 11.2002 9.2847C11.141 9.42296 11.1104 9.57181 11.1104 9.72223V10.8147C11.1123 10.958 11.0599 11.0968 10.9637 11.2031C10.8674 11.3094 10.7345 11.3753 10.5916 11.3876C10.5156 11.3927 10.4394 11.382 10.3677 11.3564C10.296 11.3307 10.2303 11.2906 10.1747 11.2385C10.1192 11.1864 10.0749 11.1234 10.0447 11.0535C10.0145 10.9836 9.99905 10.9082 9.99922 10.832V5.86432C9.99922 5.26637 9.53947 4.75314 8.94151 4.72327C8.79127 4.71604 8.64112 4.73938 8.50016 4.79188C8.35921 4.84439 8.23038 4.92496 8.12148 5.02873C8.01259 5.13249 7.92589 5.25729 7.86665 5.39555C7.80741 5.53381 7.77686 5.68266 7.77685 5.83307V14.1489C7.77853 14.2833 7.73259 14.4139 7.64717 14.5176C7.56174 14.6214 7.44235 14.6915 7.31015 14.7156H7.30181C7.21894 14.7249 7.13516 14.7095 7.06102 14.6713C6.98688 14.6331 6.92568 14.5739 6.88512 14.501L5.42669 11.9703C5.12805 11.4522 4.47245 11.2362 3.94047 11.5105C3.80605 11.5789 3.68694 11.6739 3.59042 11.7898C3.49389 11.9057 3.42197 12.04 3.37902 12.1846C3.33607 12.3291 3.323 12.4809 3.3406 12.6307C3.35821 12.7805 3.40612 12.9251 3.48141 13.0558L5.63087 17.2262C5.6799 17.3097 5.74992 17.379 5.83398 17.4271C5.91803 17.4752 6.01321 17.5005 6.11007 17.5005H15.5552C15.6584 17.5006 15.7596 17.4719 15.8474 17.4177C15.9352 17.3635 16.0062 17.2859 16.0524 17.1936C16.0774 17.1436 16.6663 16.1477 16.6663 14.3705V10.8334C16.6665 10.6829 16.6361 10.5339 16.5769 10.3955C16.5178 10.257 16.4311 10.1321 16.3222 10.0282C16.2133 9.92424 16.0844 9.84354 15.9434 9.79095C15.8023 9.73836 15.652 9.71498 15.5017 9.72223Z" fill="#9599A1"/>
</svg>
